<?xml version="1.0" encoding="UTF-8" standalone="no" ?>
<!DOCTYPE svg PUBLIC "-//W3C//DTD SVG 1.1//EN" "http://www.w3.org/Graphics/SVG/1.1/DTD/svg11.dtd">
<svg
  xmlns="http://www.w3.org/2000/svg"
  xmlns:xlink="http://www.w3.org/1999/xlink"
  version="1.1"
  width="640"
  height="640"
  viewBox="0 0 640 640"
  xml:space="preserve"
>
  <desc>Created with Fabric.js 5.3.0</desc>
  <defs></defs>
  <g
    transform="matrix(1.5691116781 -0.1372794836 0.1372794836 1.5691116781 225.2188688384 192.9251056259)"
    id="o7NXwV6AJSXwN8ABFm7wU"
  >
    <path
      style="
        stroke: rgb(0, 0, 0);
        stroke-width: 0;
        stroke-dasharray: none;
        stroke-linecap: butt;
        stroke-dashoffset: 0;
        stroke-linejoin: miter;
        stroke-miterlimit: 4;
        fill: #f8f8f8;
        fill-rule: nonzero;
        opacity: 1;
      "
      transform=" translate(0, 0)"
      d="M 43.30669 83.73907 C 57.96804 73.53987 50.31864 -22.715109999999996 43.30669 -45.02587 C 36.294740000000004 -67.33663 28.645340000000004 -93.47209 -17.251079999999995 -81.36053 C -63.14749 -69.24898 -51.67339 -33.55177 -46.573789999999995 -22.715109999999996 C -41.47418999999999 -11.878459999999995 28.64533000000001 93.93828 43.30669000000001 83.73907 z"
      stroke-linecap="round"
    />
  </g>
  <g
    transform="matrix(0.5387177849 -1.4801149493 1.4801149493 0.5387177849 153.3363342486 342.2031276063)"
    id="vDZ1PsWfxyEGVnzViE54M"
  >
    <path
      style="
        stroke: rgb(0, 0, 0);
        stroke-width: 0;
        stroke-dasharray: none;
        stroke-linecap: butt;
        stroke-dashoffset: 0;
        stroke-linejoin: miter;
        stroke-miterlimit: 4;
        fill: #f8f8f8;
        fill-rule: nonzero;
        opacity: 1;
      "
      transform=" translate(0, 0)"
      d="M 43.30669 83.73907 C 57.96804 73.53987 50.31864 -22.715109999999996 43.30669 -45.02587 C 36.294740000000004 -67.33663 28.645340000000004 -93.47209 -17.251079999999995 -81.36053 C -63.14749 -69.24898 -51.67339 -33.55177 -46.573789999999995 -22.715109999999996 C -41.47418999999999 -11.878459999999995 28.64533000000001 93.93828 43.30669000000001 83.73907 z"
      stroke-linecap="round"
    />
  </g>
  <g
    transform="matrix(-0.8346787105 -1.335765161 1.335765161 -0.8346787105 234.7273712223 465.2282652451)"
    id="m95f1APqBRU4EZGOZ2ZR2"
  >
    <path
      style="
        stroke: rgb(0, 0, 0);
        stroke-width: 0;
        stroke-dasharray: none;
        stroke-linecap: butt;
        stroke-dashoffset: 0;
        stroke-linejoin: miter;
        stroke-miterlimit: 4;
        fill: #f8f8f8;
        fill-rule: nonzero;
        opacity: 1;
      "
      transform=" translate(0, 0)"
      d="M 43.30669 83.73907 C 57.96804 73.53987 50.31864 -22.715109999999996 43.30669 -45.02587 C 36.294740000000004 -67.33663 28.645340000000004 -93.47209 -17.251079999999995 -81.36053 C -63.14749 -69.24898 -51.67339 -33.55177 -46.573789999999995 -22.715109999999996 C -41.47418999999999 -11.878459999999995 28.64533000000001 93.93828 43.30669000000001 83.73907 z"
      stroke-linecap="round"
    />
  </g>
  <g
    transform="matrix(-1.0333621388 -1.1887471577 -1.1887471577 1.0333621388 495.1531693774 280.3735975362)"
    id="I-ZydRg_D7IBeRB84rwDQ"
  >
    <path
      style="
        stroke: rgb(0, 0, 0);
        stroke-width: 0;
        stroke-dasharray: none;
        stroke-linecap: butt;
        stroke-dashoffset: 0;
        stroke-linejoin: miter;
        stroke-miterlimit: 4;
        fill: #f8f8f8;
        fill-rule: nonzero;
        opacity: 1;
      "
      transform=" translate(0, 0)"
      d="M 43.30669 83.73907 C 57.96804 73.53987 50.31864 -22.715109999999996 43.30669 -45.02587 C 36.294740000000004 -67.33663 28.645340000000004 -93.47209 -17.251079999999995 -81.36053 C -63.14749 -69.24898 -51.67339 -33.55177 -46.573789999999995 -22.715109999999996 C -41.47418999999999 -11.878459999999995 28.64533000000001 93.93828 43.30669000000001 83.73907 z"
      stroke-linecap="round"
    />
  </g>
  <g
    transform="matrix(1.5691116781 0.1372794836 -0.1372794836 1.5691116781 375.1399662159 192.9251056259)"
    id="oqqnHistgsKJsgTdsX3i1"
  >
    <path
      style="
        stroke: rgb(0, 0, 0);
        stroke-width: 0;
        stroke-dasharray: none;
        stroke-linecap: butt;
        stroke-dashoffset: 0;
        stroke-linejoin: miter;
        stroke-miterlimit: 4;
        fill: #f8f8f8;
        fill-rule: nonzero;
        opacity: 1;
      "
      transform=" translate(0, 0)"
      d="M 15.33347 -73.56308 C -20.36374 -86.94953 -33.67035 -62.08898 -36.220150000000004 -24.47941 C -38.76995 13.13015 -37.176320000000004 72.41302 -22.514970000000005 76.87517 C -7.853620000000005 81.33731999999999 10.871309999999994 42.452859999999994 22.98286999999999 13.13015 C 35.09441999999999 -16.19256 51.03067999999999 -60.17662 15.333469999999991 -73.56308 z"
      stroke-linecap="round"
    />
  </g>
  <g
    transform="matrix(-0.1919570645 1.5633648328 -1.5633648328 -0.1919570645 456.1105949258 392.2203344126)"
    id="75z8Te_t8yECAkX1AthvR"
  >
    <path
      style="
        stroke: rgb(0, 0, 0);
        stroke-width: 0;
        stroke-dasharray: none;
        stroke-linecap: butt;
        stroke-dashoffset: 0;
        stroke-linejoin: miter;
        stroke-miterlimit: 4;
        fill: #f8f8f8;
        fill-rule: nonzero;
        opacity: 1;
      "
      transform=" translate(0, 0)"
      d="M 15.33347 -73.56308 C -20.36374 -86.94953 -33.67035 -62.08898 -36.220150000000004 -24.47941 C -38.76995 13.13015 -37.176320000000004 72.41302 -22.514970000000005 76.87517 C -7.853620000000005 81.33731999999999 10.871309999999994 42.452859999999994 22.98286999999999 13.13015 C 35.09441999999999 -16.19256 51.03067999999999 -60.17662 15.333469999999991 -73.56308 z"
      stroke-linecap="round"
    />
  </g>
  <g
    transform="matrix(1.5691116781 -0.1372794836 -0.1372794836 -1.5691116781 366.7754002128 476.4773612071)"
    id="ogJpt6wXaoalPqG1FsiJz"
  >
    <path
      style="
        stroke: rgb(0, 0, 0);
        stroke-width: 0;
        stroke-dasharray: none;
        stroke-linecap: butt;
        stroke-dashoffset: 0;
        stroke-linejoin: miter;
        stroke-miterlimit: 4;
        fill: #f8f8f8;
        fill-rule: nonzero;
        opacity: 1;
      "
      transform=" translate(0, 0)"
      d="M 15.33347 -73.56308 C -20.36374 -86.94953 -33.67035 -62.08898 -36.220150000000004 -24.47941 C -38.76995 13.13015 -37.176320000000004 72.41302 -22.514970000000005 76.87517 C -7.853620000000005 81.33731999999999 10.871309999999994 42.452859999999994 22.98286999999999 13.13015 C 35.09441999999999 -16.19256 51.03067999999999 -60.17662 15.333469999999991 -73.56308 z"
      stroke-linecap="round"
    />
  </g>
  <g
    transform="matrix(2.5143518444 0 0 2.3329983936 317.8907822847 325.7322991657)"
    id="KpX328vBXnhy7N6ncVsPR"
  >
    <path
      style="
        stroke: rgb(50, 10, 234);
        stroke-width: 0;
        stroke-dasharray: none;
        stroke-linecap: butt;
        stroke-dashoffset: 0;
        stroke-linejoin: miter;
        stroke-miterlimit: 4;
        fill: #E1CE7A;
        fill-rule: nonzero;
        opacity: 1;
      "
      transform=" translate(0, 0)"
      d="M 0 -19.44223 C 10.73211 -19.44223 19.44223 -10.732109999999999 19.44223 0 C 19.44223 10.73211 10.732109999999999 19.44223 0 19.44223 C -10.73211 19.44223 -19.44223 10.732109999999999 -19.44223 0 C -19.44223 -10.73211 -10.732109999999999 -19.44223 0 -19.44223 z"
      stroke-linecap="round"
    />
  </g>
</svg>
