<svg
xmlns="http://www.w3.org/2000/svg"
xmlns:xlink="http://www.w3.org/1999/xlink"
version="1.1"
width="900"
height="300"
viewBox="0 0 900 300"
xml:space="preserve"
>
<desc>Created with Fabric.js 5.3.0</desc>
<defs></defs>
<g
transform="matrix(1 0 0 1 456.4801400459 227.2507311451)"
id="-I4gDMVnW9lcLxHaCeaBI"
>
<path
style="
        stroke: #91a88a;
stroke-width: 100;
stroke-dasharray: none;
stroke-linecap: butt;
stroke-dashoffset: 0;
stroke-linejoin: miter;
stroke-miterlimit: 4;
fill: rgb(255, 255, 255);
fill-opacity: 0;
fill-rule: nonzero;
opacity: 1;
"
transform=" translate(0, 0)"
d="M -274.78128 100.81413 C -302.57012 52.40776 -343.80517999999995 -10.341249999999988 -333.94462999999996 -58.74761999999998 C -324.08406999999994 -107.15399 -287.33108 -141.21774 -244.30319999999995 -141.21774 C -201.27530999999993 -141.21774 -160.04024999999996 -116.11814 -161.83307999999994 -58.74762 C -163.62590999999995 -1.3770999999999987 -111.63387999999995 24.61891 -69.50239999999994 -2.2735199999999978 C -45.64192999999994 -17.5036 -41.96962999999994 -40.791199999999996 -40.03590999999994 -62.973569999999995 L -40.03590999999994 -62.973569999999995 C -36.96637999999994 -98.18517 -13.336749999999938 -128.23701 20.157030000000063 -139.52616 L 23.689340000000062 -140.77835000000002 L 23.689340000000062 -140.77835000000002 C 46.18855000000006 -148.74941 71.20983000000007 -144.52015000000003 89.83934000000006 -129.59724000000003 C 108.46886000000006 -114.67433000000003 118.05779000000007 -91.17957000000003 115.19007000000006 -67.48299000000003 L 114.75417000000006 -63.90646000000003 L 114.75417000000006 -63.90646000000003 C 112.32990000000007 -44.050520000000034 119.50849000000005 -24.22724000000003 134.08423000000005 -10.527500000000032 C 148.65998000000005 3.1722399999999684 168.88962000000004 9.109929999999967 188.55741000000006 5.461169999999969 L 229.73465000000004 -2.1582400000000312 L 229.73465000000004 -2.1582400000000312 C 255.36875000000003 -6.901560000000031 281.79641000000004 -0.2213100000000312 302.0975 16.133259999999968 C 322.39859 32.48782999999997 334.55118000000004 56.887859999999975 335.37309000000005 82.94415999999997 C 336.06937000000005 105.01760999999996 331.18995000000007 119.64448999999996 309.68085 144.73842999999997"
stroke-linecap="round"
/>
</g>
</svg>
