<svg
  xmlns="http://www.w3.org/2000/svg"
  xmlns:xlink="http://www.w3.org/1999/xlink"
  version="1.1"
  width="900"
  height="900"
  viewBox="0 0 900 900"
  xml:space="preserve"
>
  <desc>Created with Fabric.js 5.3.0</desc>
  <defs></defs>
  <g
    transform="matrix(1 0 0 1 147.0119521912 276.3107871922)"
    id="ofEqmUt_hv8dkK6ysQep4"
  >
    <path
      style="
        stroke: #91a88a;
        stroke-width: 100;
        stroke-dasharray: none;
        stroke-linecap: butt;
        stroke-dashoffset: 0;
        stroke-linejoin: miter;
        stroke-miterlimit: 4;
        fill: rgb(255, 255, 255);
        fill-opacity: 0;
        fill-rule: nonzero;
        opacity: 1;
      "
      transform=" translate(0, 0)"
      d="M 206.1753 -340.85262 L -18.550299999999993 -219.60793999999999 C -45.64672999999999 -204.98879 -62.807939999999995 -176.94727999999998 -63.49602999999999 -146.16639999999998 C -64.18412 -115.38551999999999 -48.29311999999999 -86.60514999999998 -21.87704999999999 -70.78975999999999 C 4.87897000000001 -54.770839999999986 37.24789000000001 -49.593699999999984 72.60956000000002 -69.23906999999998 C 114.05828000000002 -92.26612999999998 147.83412 -72.29979999999999 169.14530000000002 -47.56418999999998 L 169.14530000000002 -47.56418999999998 C 184.53203000000002 -29.705019999999983 188.53585 -4.69703999999998 179.49386 17.07322000000002 C 170.45187 38.84348000000002 149.90900000000002 53.65631000000002 126.39728000000001 55.35952000000002 C 96.38723000000002 57.53348000000002 67.00764000000001 60.80103000000002 35.856570000000005 66.11950000000002 C 14.266410000000004 69.80562000000002 2.9909100000000066 72.55041000000001 -10.332669999999993 81.53298000000001 L -10.332669999999993 81.53298000000001 C -29.201949999999993 94.25439000000001 -39.36260999999999 116.46771000000001 -36.64725999999999 139.06220000000002 C -33.93190999999999 161.65669000000003 -18.79750999999999 180.83012000000002 2.5486100000000107 188.71854000000002 C 10.76826000000001 191.75610000000003 19.30010000000001 192.75173 28.68525000000001 193.41033000000002 C 42.65935000000001 194.39097 73.06411000000001 194.54090000000002 94.89984000000001 193.72278000000003 L 94.89984000000001 193.72278000000003 C 122.15921000000002 192.70145000000002 147.17505 208.75136000000003 157.60821 233.95584000000002 C 168.04137000000003 259.16032 161.68799 288.19523000000004 141.68188 306.73902000000004 C 113.20617000000001 333.13334000000003 80.68050000000001 345.05729 28.685240000000007 339.52588000000003 C -97.70917999999999 326.07966000000005 -158.66535999999996 257.95217 -206.17532 119.00795000000002"
      stroke-linecap="round"
    />
  </g>
</svg>
