<svg
  xmlns="http://www.w3.org/2000/svg"
  xmlns:xlink="http://www.w3.org/1999/xlink"
  version="1.1"
  width="900"
  height="900"
  viewBox="0 0 900 900"
  xml:space="preserve"
>
  <desc>Created with Fabric.js 5.3.0</desc>
  <g transform="matrix(1 0 0 1 628.3465909575 350.9255836604)">
    <path
      style="
        stroke: #91a88a;
        stroke-width: 100;
        stroke-dasharray: none;
        stroke-linecap: butt;
        stroke-dashoffset: 0;
        stroke-linejoin: miter;
        stroke-miterlimit: 4;
        fill: rgb(255, 255, 255);
        fill-opacity: 0;
        fill-rule: nonzero;
        opacity: 1;
      "
      transform=" translate(0, 0)"
      d="M -96.05492 -410.86762 C -96.05492 -410.86762 -91.12879 -367.21835 -85.92045999999999 -313.05168 C -80.71212999999999 -258.88500999999997 -140.34753999999998 -228.67667999999998 -227.58713 -224.51000999999997 C -314.82671 -220.34333999999996 -356.7538 -131.80167999999998 -308.83713 -48.468339999999955 C -260.92046 34.86499000000005 -171.33713 100.48999000000003 -100.50380000000001 17.156660000000045 C -29.67047000000001 -66.17666999999996 -30.712130000000016 -93.26000999999995 25.537869999999984 -108.88500999999995 C 81.78786999999998 -124.51000999999995 159.32148999999998 -79.17338999999996 161.9962 6.7399900000000486 C 164.67092 92.65337000000005 114.36174 129.83762000000004 57.07006999999999 154.56019000000003 C -0.22160000000001645 179.28276000000002 -86.15910000000002 169.19586000000004 -134.59660000000002 221.99109000000004 C -183.03410000000002 274.78631000000007 -177.30493 343.86609000000004 -122.09660000000002 379.28276000000005 C -66.88827000000003 414.69943000000006 69.57006999999999 450.11609000000004 127.90339999999998 307.40776000000005 C 186.23672999999997 164.69943000000006 328.94507 163.93519000000006 328.94507 163.93519000000006"
      stroke-linecap="round"
    />
  </g>
</svg>
